<svg width="24" height="25" viewBox="0 0 24 25" fill="none" xmlns="http://www.w3.org/2000/svg">
<path d="M10.4853 17.6454C10.354 17.6457 10.224 17.62 10.1026 17.5699C9.98131 17.5198 9.87108 17.4462 9.77826 17.3534L5.53626 13.1104C5.44068 13.0182 5.36442 12.908 5.31193 12.786C5.25944 12.664 5.23176 12.5328 5.23051 12.4C5.22927 12.2673 5.25448 12.1356 5.30467 12.0126C5.35486 11.8897 5.42904 11.778 5.52286 11.684C5.61669 11.5901 5.72829 11.5158 5.85115 11.4654C5.974 11.415 6.10566 11.3896 6.23844 11.3907C6.37122 11.3917 6.50246 11.4192 6.6245 11.4716C6.74654 11.5239 6.85694 11.6 6.94926 11.6954L10.4843 15.2304L16.8493 8.86742C17.0368 8.67978 17.2911 8.57431 17.5564 8.57422C17.8217 8.57413 18.0761 8.67941 18.2638 8.86692C18.4514 9.05443 18.5569 9.3088 18.557 9.57407C18.5571 9.83934 18.4518 10.0938 18.2643 10.2814L11.1923 17.3534C11.0994 17.4462 10.9892 17.5198 10.8679 17.5699C10.7465 17.62 10.6165 17.6457 10.4853 17.6454Z" fill="url(#paint0_linear)"/>
<defs>
<linearGradient id="paint0_linear" x1="5.23047" y1="13.1098" x2="18.557" y2="13.1098" gradientUnits="userSpaceOnUse">
<stop stop-color="#4CB7CC"/>
<stop offset="1" stop-color="#52DAAC"/>
</linearGradient>
</defs>
</svg>
