<svg width="48" height="48" viewBox="0 0 48 48" fill="none" xmlns="http://www.w3.org/2000/svg">
<circle cx="24" cy="24" r="24" transform="rotate(-180 24 24)" fill="url(#paint0_linear_1172:8538)"/>
<path d="M16.1875 22.5015L30.2713 22.5015L25.9606 17.324C25.7591 17.0815 25.6621 16.7688 25.691 16.4548C25.72 16.1408 25.8725 15.8512 26.115 15.6496C26.3575 15.448 26.6702 15.3511 26.9842 15.38C27.2982 15.409 27.5878 15.5615 27.7894 15.804L33.7269 22.929C33.7668 22.9857 33.8025 23.0452 33.8338 23.1071C33.8338 23.1665 33.8337 23.2021 33.9169 23.2615C33.9707 23.3976 33.9989 23.5426 34 23.689C33.9989 23.8354 33.9707 23.9803 33.9169 24.1165C33.9169 24.1759 33.9169 24.2115 33.8338 24.2709C33.8025 24.3328 33.7668 24.3923 33.7269 24.449L27.7894 31.574C27.6777 31.708 27.5379 31.8158 27.3799 31.8897C27.2218 31.9636 27.0495 32.0018 26.875 32.0015C26.5975 32.002 26.3286 31.9054 26.115 31.7284C25.9948 31.6287 25.8954 31.5062 25.8225 31.3681C25.7496 31.2299 25.7048 31.0787 25.6904 30.9232C25.6761 30.7677 25.6926 30.6108 25.7389 30.4617C25.7853 30.3125 25.8606 30.174 25.9606 30.054L30.2713 24.8765L16.1875 24.8765C15.8726 24.8765 15.5705 24.7514 15.3478 24.5287C15.1251 24.306 15 24.0039 15 23.689C15 23.374 15.1251 23.072 15.3478 22.8493C15.5705 22.6266 15.8726 22.5015 16.1875 22.5015Z" fill="white"/>
<defs>
<linearGradient id="paint0_linear_1172:8538" x1="48" y1="24.0461" x2="2.11507e-07" y2="24.0461" gradientUnits="userSpaceOnUse">
<stop stop-color="#AF1B1B"/>
<stop offset="1" stop-color="#E22222"/>
</linearGradient>
</defs>
</svg>
