<svg width="48" height="48" viewBox="0 0 48 48" fill="none" xmlns="http://www.w3.org/2000/svg">
<circle cx="24" cy="24" r="24" fill="url(#paint0_linear_1172:8538)"/>
<path d="M31.8125 25.4985H17.7287L22.0394 30.676C22.2409 30.9185 22.3379 31.2312 22.309 31.5452C22.28 31.8592 22.1275 32.1488 21.885 32.3504C21.6425 32.552 21.3298 32.6489 21.0158 32.62C20.7018 32.591 20.4122 32.4385 20.2106 32.196L14.2731 25.071C14.2332 25.0143 14.1975 24.9548 14.1662 24.8929C14.1662 24.8335 14.1663 24.7979 14.0831 24.7385C14.0293 24.6024 14.0011 24.4574 14 24.311C14.0011 24.1646 14.0293 24.0197 14.0831 23.8835C14.0831 23.8241 14.0831 23.7885 14.1662 23.7291C14.1975 23.6672 14.2332 23.6077 14.2731 23.551L20.2106 16.426C20.3223 16.292 20.4621 16.1842 20.6201 16.1103C20.7782 16.0364 20.9505 15.9982 21.125 15.9985C21.4025 15.998 21.6714 16.0946 21.885 16.2716C22.0052 16.3713 22.1046 16.4938 22.1775 16.6319C22.2504 16.7701 22.2952 16.9213 22.3096 17.0768C22.3239 17.2323 22.3074 17.3892 22.2611 17.5383C22.2147 17.6875 22.1394 17.826 22.0394 17.946L17.7287 23.1235H31.8125C32.1274 23.1235 32.4295 23.2486 32.6522 23.4713C32.8749 23.694 33 23.9961 33 24.311C33 24.626 32.8749 24.928 32.6522 25.1507C32.4295 25.3734 32.1274 25.4985 31.8125 25.4985Z" fill="white"/>
<defs>
<linearGradient id="paint0_linear_1172:8538" x1="48" y1="24.0461" x2="2.11507e-07" y2="24.0461" gradientUnits="userSpaceOnUse">
<stop stop-color="#AF1B1B"/>
<stop offset="1" stop-color="#E22222"/>
</linearGradient>
</defs>
</svg>
