<svg width="108" height="35" viewBox="0 0 108 35" fill="none" xmlns="http://www.w3.org/2000/svg">
<path fill-rule="evenodd" clip-rule="evenodd" d="M107.417 26.016C107.416 26.4104 107.333 26.8007 107.17 27.1648C107.008 27.5288 106.771 27.8594 106.473 28.1376C106.174 28.4159 105.82 28.6364 105.43 28.7866C105.041 28.9366 104.623 29.0136 104.202 29.0127C103.78 29.0118 103.363 28.9333 102.974 28.7816C102.585 28.6299 102.232 28.4079 101.935 28.1285C101.638 27.8491 101.402 27.5176 101.242 27.1528C101.081 26.7882 100.999 26.3975 101 26.0031C101 25.2066 101.338 24.4428 101.94 23.8795C102.542 23.3164 103.358 23 104.209 23C105.06 23 105.876 23.3164 106.478 23.8795C107.079 24.4428 107.417 25.2066 107.417 26.0031" fill="url(#paint0_linear_0:4)"/>
<path d="M6.072 26.48C7.448 26.48 8.616 26.256 9.576 25.808C10.5467 25.3493 11.4 24.64 12.136 23.68V26H15.512V15.392C15.512 14.6453 15.48 13.9573 15.416 13.328C15.352 12.688 15.1653 12.064 14.856 11.456C14.2907 10.3147 13.4213 9.49333 12.248 8.992C11.0853 8.49067 9.736 8.24 8.2 8.24C6.17333 8.24 4.55733 8.68267 3.352 9.568C2.14667 10.4533 1.33067 11.6267 0.904 13.088L4.424 14.192C4.712 13.3067 5.21867 12.6827 5.944 12.32C6.66933 11.9573 7.42133 11.776 8.2 11.776C9.37333 11.776 10.2373 12.016 10.792 12.496C11.3467 12.9653 11.6613 13.696 11.736 14.688C10.2213 14.912 8.81333 15.1307 7.512 15.344C6.22133 15.5467 5.12267 15.7973 4.216 16.096C2.85067 16.5653 1.85333 17.232 1.224 18.096C0.594667 18.9493 0.28 20.0053 0.28 21.264C0.28 22.2133 0.498667 23.0827 0.936 23.872C1.384 24.6613 2.04 25.296 2.904 25.776C3.768 26.2453 4.824 26.48 6.072 26.48ZM6.84 23.408C5.93333 23.408 5.24 23.2 4.76 22.784C4.29067 22.368 4.056 21.8453 4.056 21.216C4.056 20.6507 4.23733 20.192 4.6 19.84C4.97333 19.488 5.49067 19.1893 6.152 18.944C6.76 18.7413 7.49067 18.5653 8.344 18.416C9.19733 18.256 10.312 18.0693 11.688 17.856C11.6773 18.2613 11.6507 18.7147 11.608 19.216C11.5653 19.7067 11.464 20.1493 11.304 20.544C11.176 20.9387 10.9253 21.36 10.552 21.808C10.1893 22.256 9.69867 22.6347 9.08 22.944C8.46133 23.2533 7.71467 23.408 6.84 23.408ZM19.6455 26H23.5495V17.12C23.5495 15.7227 23.7468 14.6453 24.1415 13.888C24.5468 13.12 25.0588 12.592 25.6775 12.304C26.3068 12.0053 26.9468 11.856 27.5975 11.856C28.5148 11.856 29.2455 12.0587 29.7895 12.464C30.3335 12.8587 30.7335 13.3653 30.9895 13.984C31.2562 14.592 31.4268 15.2267 31.5015 15.888C31.5868 16.5493 31.6295 17.1467 31.6295 17.68V26H35.5335V16.352C35.5335 15.9467 35.4962 15.408 35.4215 14.736C35.3575 14.064 35.2082 13.3547 34.9735 12.608C34.7388 11.8613 34.3762 11.1573 33.8855 10.496C33.3948 9.824 32.7282 9.28 31.8855 8.864C31.0535 8.43733 30.0028 8.224 28.7335 8.224C27.4855 8.224 26.3868 8.44267 25.4375 8.88C24.4988 9.30667 23.7148 9.89333 23.0855 10.64V8.72H19.6455V26ZM41.3558 33.68H44.9718L54.6038 8.72H50.7478L46.0598 21.088L41.2278 8.72H37.2118L44.2038 25.872L41.3558 33.68ZM63.934 26.48C67.102 26.48 69.4167 25.072 70.878 22.256L69.566 21.68C69.0433 22.8107 68.2913 23.6693 67.31 24.256C66.3287 24.8427 65.2033 25.136 63.934 25.136C61.8113 25.136 60.2113 24.4267 59.134 23.008C58.0567 21.5893 57.502 19.7067 57.47 17.36C57.4913 15.824 57.7367 14.4747 58.206 13.312C58.6753 12.1387 59.3847 11.2267 60.334 10.576C61.2833 9.91467 62.4833 9.584 63.934 9.584C65.2353 9.584 66.382 9.888 67.374 10.496C68.3767 11.104 69.118 11.9627 69.598 13.072L70.878 12.528C70.3553 11.1947 69.4647 10.1493 68.206 9.392C66.958 8.624 65.534 8.24 63.934 8.24C61.374 8.24 59.4273 9.06667 58.094 10.72C56.7713 12.3733 56.0833 14.5867 56.03 17.36C56.062 19.1627 56.3767 20.752 56.974 22.128C57.5713 23.4933 58.4513 24.56 59.614 25.328C60.7767 26.096 62.2167 26.48 63.934 26.48ZM79.264 26.48C80.7893 26.48 82.16 26.1653 83.376 25.536C84.592 24.9067 85.5253 24.0107 86.176 22.848V26H87.424V15.184C87.424 14.608 87.392 14.016 87.328 13.408C87.264 12.8 87.1573 12.2827 87.008 11.856C86.624 10.7467 85.8987 9.86667 84.832 9.216C83.7653 8.56533 82.432 8.24 80.832 8.24C79.008 8.24 77.4987 8.656 76.304 9.488C75.12 10.32 74.336 11.536 73.952 13.136L75.424 13.52C76.1173 10.896 77.8987 9.584 80.768 9.584C82.7307 9.584 84.112 10.064 84.912 11.024C85.712 11.984 86.1013 13.4347 86.08 15.376C85.504 15.44 84.752 15.5253 83.824 15.632C82.9067 15.7387 81.9307 15.8667 80.896 16.016C79.8613 16.1547 78.8907 16.3147 77.984 16.496C77.1627 16.6667 76.3947 16.944 75.68 17.328C74.9653 17.712 74.384 18.24 73.936 18.912C73.4987 19.5733 73.28 20.4107 73.28 21.424C73.28 22.32 73.4987 23.152 73.936 23.92C74.3733 24.688 75.0347 25.3067 75.92 25.776C76.8053 26.2453 77.92 26.48 79.264 26.48ZM79.2 25.136C78.0587 25.136 77.1573 24.944 76.496 24.56C75.8453 24.176 75.3813 23.7013 75.104 23.136C74.8267 22.5707 74.688 22.0107 74.688 21.456C74.688 20.6667 74.8747 20.0213 75.248 19.52C75.632 19.0187 76.1013 18.6293 76.656 18.352C77.2107 18.0747 77.7493 17.872 78.272 17.744C79.0613 17.5413 79.936 17.376 80.896 17.248C81.8667 17.1093 82.8107 16.9973 83.728 16.912C84.6453 16.816 85.4293 16.7413 86.08 16.688C86.08 17.072 86.0747 17.52 86.064 18.032C86.0533 18.544 86.016 19.024 85.952 19.472C85.7173 21.2533 85.0027 22.6453 83.808 23.648C82.6133 24.64 81.0773 25.136 79.2 25.136ZM91.5838 26H92.9278V17.488C92.9278 16.784 92.9544 16.0427 93.0078 15.264C93.0611 14.4747 93.2104 13.712 93.4557 12.976C93.7118 12.24 94.1438 11.5893 94.7518 11.024C95.4451 10.384 96.1918 10.016 96.9918 9.92C97.7918 9.81333 98.5491 9.84 99.2638 10V8.72C98.7624 8.56 98.1864 8.50133 97.5358 8.544C96.8851 8.576 96.2344 8.71467 95.5838 8.96C94.9438 9.19467 94.3891 9.54133 93.9198 10C93.5144 10.3733 93.1518 10.848 92.8318 11.424V8.72H91.5838V26Z" fill="#0D0A46"/>
<defs>
<linearGradient id="paint0_linear_0:4" x1="101" y1="26.0063" x2="107.417" y2="26.0063" gradientUnits="userSpaceOnUse">
<stop stop-color="#4CB7CC"/>
<stop offset="1" stop-color="#52DAAC"/>
</linearGradient>
</defs>
</svg>
