<svg width="512" height="438" viewBox="0 0 512 438" fill="none" xmlns="http://www.w3.org/2000/svg">
<g clip-path="url(#clip0_1130:1216)">
<path opacity="0.4" d="M109.805 364.285L108.895 362.71L255.01 278.352L256.831 279.395L109.805 364.285Z" fill="#D6D8E5"/>
<path opacity="0.4" d="M199.453 192.24L198.543 193.816L421.99 322.823L422.9 321.247L199.453 192.24Z" fill="#D6D8E5"/>
<path opacity="0.4" d="M425.516 230.711L347.365 185.592L425.516 140.473L503.667 185.592L425.516 230.711Z" fill="#D6D8E5"/>
<path d="M501.191 175.617L433.032 136.266L364.882 175.617L354.881 169.849V181.385L433.032 226.504L511.182 181.385V169.849L501.191 175.617Z" fill="#D5D6E0"/>
<path d="M433.032 214.973L354.881 169.854L433.032 124.734L511.182 169.854L433.032 214.973Z" fill="#E9EAF4"/>
<path d="M433.033 74.9089L368.166 37.4494L433.033 0L497.909 37.4494L433.033 74.9089Z" fill="#E9EAF4"/>
<path d="M368.166 37.4453V170.983L433.033 208.442V74.9049L368.166 37.4453Z" fill="#DFE0EA"/>
<path d="M433.033 208.442L497.91 170.983V37.4453L433.033 74.9049V208.442Z" fill="#D5D6E0"/>
<path d="M455.07 91.2484L443.842 97.732V84.7648L455.07 78.2812V91.2484Z" fill="#2B303F"/>
<path d="M490.669 70.6976L458.496 89.2689V76.3018L490.669 57.7305V70.6976Z" fill="#2B303F"/>
<path d="M455.07 110.147L443.842 116.63V103.663L455.07 97.1797V110.147Z" fill="#2B303F"/>
<path d="M490.669 89.5937L458.496 108.175V95.1978L490.669 76.6367V89.5937Z" fill="#2B303F"/>
<path d="M455.07 129.045L443.842 135.529V122.562L455.07 116.078V129.045Z" fill="#2B303F"/>
<path d="M490.669 108.502L458.496 127.074V114.106L490.669 95.5352V108.502Z" fill="#2B303F"/>
<path d="M455.07 147.948L443.842 154.431V141.464L455.07 134.98V147.948Z" fill="#2B303F"/>
<path d="M490.669 127.405L458.496 145.976V133.009L490.669 114.438V127.405Z" fill="#2B303F"/>
<path d="M455.07 166.846L443.842 173.34V160.362L455.07 153.879V166.846Z" fill="#2B303F"/>
<path d="M490.669 146.303L458.496 164.874V151.907L490.669 133.336V146.303Z" fill="#2B303F"/>
<path d="M387.431 78.6483L376.273 72.2057V59.3203L387.431 65.763V78.6483Z" fill="#2B303F"/>
<path d="M422.794 99.0644L390.836 80.6158V67.7305L422.794 86.1893V99.0644Z" fill="#2B303F"/>
<path d="M387.431 97.4311L376.273 90.9884V78.1133L387.431 84.5457V97.4311Z" fill="#2B303F"/>
<path d="M422.794 117.846L390.836 99.3869V86.5117L422.794 104.96V117.846Z" fill="#2B303F"/>
<path d="M387.431 116.205L376.273 109.762V96.8867L387.431 103.329V116.205Z" fill="#2B303F"/>
<path d="M422.794 136.627L390.836 118.178V105.293L422.794 123.742V136.627Z" fill="#2B303F"/>
<path d="M387.431 134.984L376.273 128.542V115.656L387.431 122.099V134.984Z" fill="#2B303F"/>
<path d="M422.794 155.396L390.836 136.948V124.062L422.794 142.511V155.396Z" fill="#2B303F"/>
<path d="M387.431 153.766L376.273 147.323V134.438L387.431 140.88V153.766Z" fill="#2B303F"/>
<path d="M422.794 174.178L390.836 155.729V142.844L422.794 161.292V174.178Z" fill="#2B303F"/>
<path d="M368.166 163.503L433.033 200.277L497.909 162.184V170.989L433.033 208.448L368.166 170.989V163.503Z" fill="url(#paint0_linear_1130:1216)"/>
<path d="M434.423 38.3281C433.023 38.6504 431.568 38.6504 430.169 38.3281L426.947 40.1893C430.419 41.3862 434.192 41.3862 437.665 40.1893L434.423 38.3281Z" fill="#2B303F"/>
<path d="M437.521 36.55L440.763 38.4214C441.244 38.0614 441.634 37.5944 441.902 37.0574C442.171 36.5204 442.311 35.9283 442.311 35.3279C442.311 34.7275 442.171 34.1353 441.902 33.5984C441.634 33.0614 441.244 32.5944 440.763 32.2344L437.532 34.0956C437.796 34.4507 437.938 34.8819 437.936 35.3245C437.934 35.767 437.788 36.197 437.521 36.55Z" fill="#2B303F"/>
<path d="M430.179 32.3159C431.58 31.9989 433.033 31.9989 434.434 32.3159L437.696 30.4445C434.224 29.2477 430.451 29.2477 426.979 30.4445L430.179 32.3159Z" fill="#2B303F"/>
<path d="M427.089 34.0956L423.857 32.2344C423.375 32.5931 422.983 33.0597 422.713 33.5968C422.443 34.134 422.303 34.7268 422.303 35.3279C422.303 35.929 422.443 36.5218 422.713 37.0589C422.983 37.5961 423.375 38.0626 423.857 38.4214L427.089 36.5602C426.821 36.2052 426.676 35.7726 426.676 35.3279C426.676 34.8832 426.821 34.4505 427.089 34.0956Z" fill="#2B303F"/>
<path d="M443.113 39.7759L446.181 41.5758C451.131 37.9045 451.131 32.7299 446.181 29.0586L443.113 30.8687C446.396 33.5173 446.396 37.1171 443.113 39.7759Z" fill="#2B303F"/>
<path d="M440.026 41.5625C435.054 43.4645 429.556 43.4645 424.584 41.5625L421.465 43.3624C428.404 46.2255 436.195 46.2255 443.135 43.3624L440.026 41.5625Z" fill="#2B303F"/>
<path d="M424.584 29.0842C429.553 27.1868 435.047 27.1868 440.016 29.0842L443.135 27.2844C436.193 24.4313 428.406 24.4313 421.465 27.2844L424.584 29.0842Z" fill="#2B303F"/>
<path d="M421.497 30.8585L418.378 29.0586C413.429 32.7299 413.429 37.9045 418.378 41.5758L421.497 39.7759C418.266 37.1171 418.204 33.5173 421.497 30.8585Z" fill="#2B303F"/>
<path d="M448.566 42.948L451.634 44.7377C459.529 39.3279 459.529 31.3614 451.634 25.9414L448.566 27.731C454.784 32.1284 454.774 38.5097 448.566 42.948Z" fill="#2B303F"/>
<path d="M445.478 44.7109C437.829 48.3004 426.774 48.3004 419.125 44.7109L416.057 46.5006C425.434 51.0513 439.23 51.0513 448.608 46.5006L445.478 44.7109Z" fill="#2B303F"/>
<path d="M419.123 25.937C426.783 22.3475 437.828 22.3475 445.477 25.937L448.545 24.1473C439.167 19.5863 425.372 19.5863 415.994 24.1473L419.123 25.937Z" fill="#2B303F"/>
<path d="M416.034 27.7115L412.966 25.9219C405.071 31.3419 405.071 39.3083 412.966 44.7181L416.034 42.9285C409.827 38.5107 409.827 32.1293 416.034 27.7115Z" fill="#2B303F"/>
<path opacity="0.4" d="M180.612 236.16L102.461 191.041L180.612 145.922L258.762 191.041L180.612 236.16Z" fill="#D6D8E5"/>
<path d="M256.277 181.072L188.127 141.73L119.978 181.072L109.977 175.304V186.85L188.127 231.959L266.278 186.85V175.304L256.277 181.072Z" fill="#D5D6E0"/>
<path d="M188.127 220.418L109.977 175.299L188.127 130.18L266.278 175.299L188.127 220.418Z" fill="#E9EAF4"/>
<path d="M188.128 80.366L123.262 42.9064L188.128 5.45703L253.005 42.9064L188.128 80.366Z" fill="#E9EAF4"/>
<path d="M123.262 42.9023V176.44L188.128 213.899V80.3619L123.262 42.9023Z" fill="#DFE0EA"/>
<path d="M188.129 213.899L253.006 176.44V42.9023L188.129 80.3619V213.899Z" fill="#D5D6E0"/>
<path d="M210.164 96.7055L198.936 103.189V90.2219L210.164 83.7383V96.7055Z" fill="#2B303F"/>
<path d="M245.754 76.1532L213.592 94.7244V81.7471L245.754 63.1758V76.1532Z" fill="#2B303F"/>
<path d="M210.164 115.604L198.936 122.087V109.12L210.164 102.637V115.604Z" fill="#2B303F"/>
<path d="M245.754 95.0531L213.592 113.624V100.657L245.754 82.0859V95.0531Z" fill="#2B303F"/>
<path d="M210.164 134.502L198.936 140.986V128.019L210.164 121.535V134.502Z" fill="#2B303F"/>
<path d="M245.754 113.952L213.592 132.523V119.556L245.754 100.984V113.952Z" fill="#2B303F"/>
<path d="M210.164 153.393L198.936 159.876V146.909L210.164 140.426V153.393Z" fill="#2B303F"/>
<path d="M245.754 132.85L213.592 151.421V138.454L245.754 119.883V132.85Z" fill="#2B303F"/>
<path d="M210.164 172.311L198.936 178.795V165.827L210.164 159.344V172.311Z" fill="#2B303F"/>
<path d="M245.754 151.748L213.592 170.32V157.353L245.754 138.781V151.748Z" fill="#2B303F"/>
<path d="M142.53 84.1054L131.373 77.6627V64.7773L142.53 71.22V84.1054Z" fill="#2B303F"/>
<path d="M177.884 104.518L145.926 86.069V73.1836L177.884 91.6424V104.518Z" fill="#2B303F"/>
<path d="M142.53 102.876L131.373 96.4337V83.5586L142.53 90.0013V102.876Z" fill="#2B303F"/>
<path d="M177.884 123.303L145.926 104.854V91.9688L177.884 110.417V123.303Z" fill="#2B303F"/>
<path d="M142.53 121.66L131.373 115.217V102.332L142.53 108.775V121.66Z" fill="#2B303F"/>
<path d="M177.884 142.08L145.926 123.631V110.746L177.884 129.195V142.08Z" fill="#2B303F"/>
<path d="M142.53 140.441L131.373 133.999V121.113L142.53 127.556V140.441Z" fill="#2B303F"/>
<path d="M177.884 160.853L145.926 142.405V129.52L177.884 147.968V160.853Z" fill="#2B303F"/>
<path d="M142.53 159.219L131.373 152.776V139.891L142.53 146.333V159.219Z" fill="#2B303F"/>
<path d="M177.884 179.627L145.926 161.178V148.293L177.884 166.752V179.627Z" fill="#2B303F"/>
<path d="M123.262 168.952L188.128 205.737L253.005 167.633V176.438L188.128 213.897L123.262 176.438V168.952Z" fill="url(#paint1_linear_1130:1216)"/>
<path d="M189.519 43.7891C188.119 44.1061 186.665 44.1061 185.265 43.7891L182.033 45.6503C185.509 46.8471 189.285 46.8471 192.761 45.6503L189.519 43.7891Z" fill="#2B303F"/>
<path d="M192.607 42.0027L195.849 43.8742C196.32 43.5133 196.701 43.0488 196.964 42.5168C197.227 41.9848 197.363 41.3995 197.363 40.8062C197.363 40.213 197.227 39.6277 196.964 39.0957C196.701 38.5637 196.32 38.0992 195.849 37.7383L192.618 39.5995C192.87 39.9499 193.005 40.3711 193.003 40.8028C193.001 41.2345 192.863 41.6545 192.607 42.0027Z" fill="#2B303F"/>
<path d="M185.275 37.7703C186.675 37.4533 188.129 37.4533 189.529 37.7703L192.761 35.9091C189.284 34.7178 185.51 34.7178 182.033 35.9091L185.275 37.7703Z" fill="#2B303F"/>
<path d="M182.186 39.5409L178.965 37.6797C178.494 38.0406 178.113 38.5051 177.85 39.0371C177.588 39.5691 177.451 40.1544 177.451 40.7476C177.451 41.3409 177.588 41.9262 177.85 42.4582C178.113 42.9902 178.494 43.4547 178.965 43.8156L182.197 41.9544C181.939 41.6052 181.799 41.1831 181.798 40.7493C181.796 40.3155 181.932 39.8923 182.186 39.5409Z" fill="#2B303F"/>
<path d="M198.211 45.233L201.279 47.0328C206.229 43.3615 206.229 38.1869 201.279 34.5156L198.16 36.3257C201.463 38.9846 201.463 42.5741 198.211 45.233Z" fill="#2B303F"/>
<path d="M195.113 47.043C190.144 48.9404 184.65 48.9404 179.681 47.043L176.613 48.8428C183.553 51.7059 191.344 51.7059 198.283 48.8428L195.113 47.043Z" fill="#2B303F"/>
<path d="M179.68 34.5398C184.649 32.6423 190.142 32.6423 195.111 34.5398L198.23 32.7297C191.289 29.8766 183.502 29.8766 176.561 32.7297L179.68 34.5398Z" fill="#2B303F"/>
<path d="M176.593 36.3131L173.474 34.5234C168.524 38.1845 168.524 43.3591 173.474 47.0304L176.593 45.2306C173.31 42.5717 173.3 38.972 176.593 36.3131Z" fill="#2B303F"/>
<path d="M203.66 48.3816L206.728 50.1713C214.623 44.7615 214.623 36.795 206.728 31.375L203.66 33.1646C209.868 37.5825 209.868 43.974 203.66 48.3816Z" fill="#2B303F"/>
<path d="M200.574 50.1602C192.914 53.7497 181.87 53.7497 174.22 50.1602L171.152 51.9498C180.53 56.5006 194.326 56.5006 203.703 51.9498L200.574 50.1602Z" fill="#2B303F"/>
<path d="M174.219 31.3862C181.879 27.8069 192.923 27.7967 200.573 31.3862L203.641 29.5965C194.263 25.0355 180.468 25.0355 171.09 29.5965L174.219 31.3862Z" fill="#2B303F"/>
<path d="M171.132 33.1646L168.064 31.375C160.169 36.795 160.169 44.7615 168.064 50.1713L171.132 48.3816C164.924 43.974 164.924 37.5927 171.132 33.1646Z" fill="#2B303F"/>
<path opacity="0.4" d="M298.719 303.582L220.568 258.463L298.719 213.344L376.87 258.463L298.719 303.582Z" fill="#D6D8E5"/>
<path d="M374.382 248.488L306.233 209.137L238.084 248.488L228.082 242.721V254.256L306.233 299.375L384.384 254.266V242.721L374.382 248.488Z" fill="#D5D6E0"/>
<path d="M306.233 287.844L228.082 242.725L306.233 197.605L384.384 242.725L306.233 287.844Z" fill="#E9EAF4"/>
<path d="M306.236 147.78L241.369 110.32L306.236 72.8711L371.102 110.331L306.236 147.78Z" fill="#E9EAF4"/>
<path d="M241.369 110.324V243.862L306.236 281.321V147.784L241.369 110.324Z" fill="#DFE0EA"/>
<path d="M306.232 281.323L371.099 243.873V110.336L306.232 147.785V281.323Z" fill="#D5D6E0"/>
<path d="M328.274 164.127L317.045 170.611V157.644L328.274 151.16V164.127Z" fill="#2B303F"/>
<path d="M363.859 143.58L331.697 162.152V149.185L363.859 130.613V143.58Z" fill="#2B303F"/>
<path d="M328.274 183.026L317.045 189.509V176.542L328.274 170.059V183.026Z" fill="#2B303F"/>
<path d="M363.859 162.479L331.697 181.05V168.083L363.859 149.512V162.479Z" fill="#2B303F"/>
<path d="M328.274 201.92L317.045 208.404V195.437L328.274 188.953V201.92Z" fill="#2B303F"/>
<path d="M363.859 181.377L331.697 199.949V186.981L363.859 168.41V181.377Z" fill="#2B303F"/>
<path d="M328.274 220.819L317.045 227.302V214.335L328.274 207.852V220.819Z" fill="#2B303F"/>
<path d="M363.859 200.276L331.697 218.847V205.88L363.859 187.309V200.276Z" fill="#2B303F"/>
<path d="M328.274 239.733L317.045 246.216V233.249L328.274 226.766V239.733Z" fill="#2B303F"/>
<path d="M363.859 219.174L331.697 237.745V224.778L363.859 206.207V219.174Z" fill="#2B303F"/>
<path d="M260.624 151.521L249.467 145.078V132.203L260.624 138.636V151.521Z" fill="#2B303F"/>
<path d="M295.987 171.937L264.029 153.488V140.613L295.987 159.062V171.937Z" fill="#2B303F"/>
<path d="M260.624 170.302L249.467 163.86V150.984L260.624 157.427V170.302Z" fill="#2B303F"/>
<path d="M295.987 190.725L264.029 172.276V159.391L295.987 177.839V190.725Z" fill="#2B303F"/>
<path d="M260.624 189.086L249.467 182.643V169.758L260.624 176.2V189.086Z" fill="#2B303F"/>
<path d="M295.987 209.498L264.029 191.049V178.164L295.987 196.613V209.498Z" fill="#2B303F"/>
<path d="M260.624 207.863L249.467 201.421V188.535L260.624 194.978V207.863Z" fill="#2B303F"/>
<path d="M295.987 228.279L264.029 209.831V196.945L295.987 215.394V228.279Z" fill="#2B303F"/>
<path d="M260.624 226.637L249.467 220.194V207.309L260.624 213.751V226.637Z" fill="#2B303F"/>
<path d="M295.987 247.049L264.029 228.6V215.715L295.987 234.174V247.049Z" fill="#2B303F"/>
<path d="M241.369 236.374L306.236 273.158L371.102 235.055V243.87L306.236 281.319L241.369 243.86V236.374Z" fill="url(#paint2_linear_1130:1216)"/>
<path d="M307.623 111.211C306.222 111.528 304.769 111.528 303.368 111.211L300.137 113.072C303.612 114.269 307.389 114.269 310.864 113.072L307.623 111.211Z" fill="#2B303F"/>
<path d="M310.713 109.429L313.955 111.3C314.426 110.939 314.807 110.475 315.07 109.943C315.332 109.411 315.469 108.825 315.469 108.232C315.469 107.639 315.332 107.053 315.07 106.521C314.807 105.989 314.426 105.525 313.955 105.164L310.723 107.025C310.975 107.376 311.11 107.797 311.108 108.229C311.106 108.66 310.968 109.08 310.713 109.429Z" fill="#2B303F"/>
<path d="M303.381 105.194C304.782 104.877 306.235 104.877 307.636 105.194L310.888 103.292C307.411 102.101 303.637 102.101 300.16 103.292L303.381 105.194Z" fill="#2B303F"/>
<path d="M300.291 106.967L297.049 105.105C296.578 105.466 296.197 105.931 295.934 106.463C295.672 106.995 295.535 107.58 295.535 108.173C295.535 108.767 295.672 109.352 295.934 109.884C296.197 110.416 296.578 110.88 297.049 111.241L300.281 109.38C300.026 109.029 299.89 108.606 299.892 108.172C299.894 107.738 300.033 107.316 300.291 106.967Z" fill="#2B303F"/>
<path d="M316.319 112.655L319.387 114.455C324.336 110.783 324.336 105.609 319.387 101.938L316.268 103.748C319.591 106.406 319.601 109.996 316.319 112.655Z" fill="#2B303F"/>
<path d="M313.221 114.445C308.252 116.343 302.758 116.343 297.789 114.445L294.67 116.245C301.61 119.108 309.4 119.108 316.34 116.245L313.221 114.445Z" fill="#2B303F"/>
<path d="M297.789 101.955C302.758 100.058 308.252 100.058 313.221 101.955L316.34 100.155C309.398 97.3023 301.611 97.3023 294.67 100.155L297.789 101.955Z" fill="#2B303F"/>
<path d="M294.688 103.735L291.62 101.945C286.671 105.606 286.671 110.781 291.62 114.452L294.739 112.652C291.457 109.994 291.457 106.353 294.688 103.735Z" fill="#2B303F"/>
<path d="M321.77 115.807L324.837 117.597C332.732 112.187 332.732 104.221 324.837 98.8008L321.77 100.59C327.977 105.008 327.977 111.39 321.77 115.807Z" fill="#2B303F"/>
<path d="M318.679 117.602C311.02 121.191 299.975 121.191 292.326 117.602L289.258 119.391C298.635 123.942 312.431 123.942 321.809 119.391L318.679 117.602Z" fill="#2B303F"/>
<path d="M292.327 98.812C299.986 95.2327 311.031 95.2225 318.68 98.812L321.748 97.0223C312.37 92.4613 298.575 92.4613 289.197 97.0223L292.327 98.812Z" fill="#2B303F"/>
<path d="M289.237 100.59L286.169 98.8008C278.274 104.221 278.274 112.187 286.169 117.597L289.237 115.807C283.03 111.39 283.03 105.018 289.237 100.59Z" fill="#2B303F"/>
<path opacity="0.4" d="M425.659 376.938L347.508 331.818L425.659 286.699L503.809 331.818L425.659 376.938Z" fill="#D6D8E5"/>
<path d="M501.334 321.849L433.174 282.508L365.025 321.849L355.023 316.081V327.627L433.174 372.746L511.325 327.627V316.081L501.334 321.849Z" fill="#D5D6E0"/>
<path d="M433.174 361.196L355.023 316.076L433.174 270.957L511.325 316.076L433.174 361.196Z" fill="#E9EAF4"/>
<path d="M433.175 221.135L368.309 183.686L433.175 146.227L498.042 183.686L433.175 221.135Z" fill="#E9EAF4"/>
<path d="M368.309 183.688V317.215L433.175 354.674V221.137L368.309 183.688Z" fill="#DFE0EA"/>
<path d="M433.176 354.674L498.042 317.225V183.688L433.176 221.137V354.674Z" fill="#D5D6E0"/>
<path d="M455.213 237.483L443.984 243.966V230.999L455.213 224.516V237.483Z" fill="#2B303F"/>
<path d="M490.801 216.932L458.639 235.503V222.536L490.801 203.965V216.932Z" fill="#2B303F"/>
<path d="M455.213 256.381L443.984 262.865V249.898L455.213 243.414V256.381Z" fill="#2B303F"/>
<path d="M490.801 235.83L458.639 254.402V241.435L490.801 222.863V235.83Z" fill="#2B303F"/>
<path d="M455.213 275.272L443.984 281.755V268.788L455.213 262.305V275.272Z" fill="#2B303F"/>
<path d="M490.801 254.729L458.639 273.3V260.333L490.801 241.762V254.729Z" fill="#2B303F"/>
<path d="M455.213 294.19L443.984 300.673V287.706L455.213 281.223V294.19Z" fill="#2B303F"/>
<path d="M490.801 273.627L458.639 292.199V279.231L490.801 260.66V273.627Z" fill="#2B303F"/>
<path d="M455.213 313.088L443.984 319.572V306.605L455.213 300.121V313.088Z" fill="#2B303F"/>
<path d="M490.801 292.53L458.639 311.101V298.134L490.801 279.562V292.53Z" fill="#2B303F"/>
<path d="M387.573 224.876L376.416 218.434V205.559L387.573 212.001V224.876Z" fill="#2B303F"/>
<path d="M422.926 245.299L390.969 226.84V213.965L422.926 232.413V245.299Z" fill="#2B303F"/>
<path d="M387.573 243.658L376.416 237.225V224.34L387.573 230.783V243.658Z" fill="#2B303F"/>
<path d="M422.926 264.08L390.969 245.631V232.746L422.926 251.195V264.08Z" fill="#2B303F"/>
<path d="M387.573 262.441L376.416 255.999V243.113L387.573 249.556V262.441Z" fill="#2B303F"/>
<path d="M422.926 282.853L390.969 264.405V251.52L422.926 269.968V282.853Z" fill="#2B303F"/>
<path d="M387.573 281.219L376.416 274.776V261.891L387.573 268.333V281.219Z" fill="#2B303F"/>
<path d="M422.926 301.631L390.969 283.182V270.297L422.926 288.756V301.631Z" fill="#2B303F"/>
<path d="M387.573 299.992L376.416 293.549V280.664L387.573 287.107V299.992Z" fill="#2B303F"/>
<path d="M422.926 320.404L390.969 301.956V289.07L422.926 307.529V320.404Z" fill="#2B303F"/>
<path d="M368.309 309.74L433.175 346.514L498.042 308.41V317.225L433.175 354.675L368.309 317.215V309.74Z" fill="url(#paint3_linear_1130:1216)"/>
<path d="M434.566 184.566C433.166 184.889 431.711 184.889 430.312 184.566L427.08 186.428C430.556 187.624 434.332 187.624 437.808 186.428L434.566 184.566Z" fill="#2B303F"/>
<path d="M437.695 182.777L440.937 184.648C441.418 184.288 441.808 183.821 442.076 183.284C442.345 182.747 442.485 182.155 442.485 181.554C442.485 180.954 442.345 180.362 442.076 179.825C441.808 179.288 441.418 178.821 440.937 178.461L437.695 180.322C437.961 180.676 438.104 181.107 438.104 181.549C438.104 181.992 437.961 182.422 437.695 182.777Z" fill="#2B303F"/>
<path d="M430.321 178.546C431.721 178.224 433.176 178.224 434.576 178.546L437.807 176.675C434.333 175.489 430.564 175.489 427.09 176.675L430.321 178.546Z" fill="#2B303F"/>
<path d="M427.233 180.322L423.991 178.461C423.51 178.821 423.12 179.288 422.852 179.825C422.583 180.362 422.443 180.954 422.443 181.554C422.443 182.155 422.583 182.747 422.852 183.284C423.12 183.821 423.51 184.288 423.991 184.648L427.223 182.787C426.956 182.431 426.813 181.997 426.815 181.553C426.817 181.108 426.963 180.676 427.233 180.322Z" fill="#2B303F"/>
<path d="M443.258 186.008L446.326 187.808C451.276 184.147 451.276 178.962 446.326 175.301L443.207 177.101C446.541 179.76 446.541 183.359 443.258 186.008Z" fill="#2B303F"/>
<path d="M440.17 187.801C435.198 189.698 429.701 189.698 424.728 187.801L421.609 189.611C428.551 192.464 436.338 192.464 443.279 189.611L440.17 187.801Z" fill="#2B303F"/>
<path d="M424.729 175.311C429.699 173.419 435.191 173.419 440.161 175.311L443.229 173.511C436.287 170.658 428.5 170.658 421.559 173.511L424.729 175.311Z" fill="#2B303F"/>
<path d="M421.64 177.101L418.521 175.301C413.571 178.962 413.571 184.147 418.521 187.808L421.64 186.008C418.357 183.349 418.347 179.749 421.64 177.101Z" fill="#2B303F"/>
<path d="M448.709 189.19L451.777 190.98C459.672 185.57 459.672 177.604 451.777 172.184L448.709 173.973C454.916 178.371 454.916 184.742 448.709 189.19Z" fill="#2B303F"/>
<path d="M445.621 190.949C437.961 194.529 426.917 194.529 419.267 190.949L416.199 192.739C425.577 197.29 439.372 197.29 448.75 192.739L445.621 190.949Z" fill="#2B303F"/>
<path d="M419.289 172.164C426.949 168.584 437.994 168.574 445.643 172.164L448.711 170.374C439.333 165.813 425.538 165.823 416.16 170.374L419.289 172.164Z" fill="#2B303F"/>
<path d="M416.221 173.946L413.154 172.156C405.259 177.566 405.259 185.532 413.154 190.942L416.221 189.153C409.973 184.735 409.973 178.364 416.221 173.946Z" fill="#2B303F"/>
<path opacity="0.4" d="M50.4287 435.929L3.5914 408.88C-1.72637 405.812 -1.06165 400.463 5.07424 396.925L28.8508 383.191C34.9867 379.652 44.2621 379.264 49.5696 382.332L96.4069 409.381C101.725 412.449 101.05 417.797 94.9241 421.335L71.1475 435.07C65.0116 438.608 55.7362 438.997 50.4287 435.929Z" fill="#D6D8E5"/>
<path d="M120.777 402.188V336.8L20.8137 325.551V391.348C20.7421 393.393 21.8977 395.275 24.3725 396.707L71.2097 423.745C76.5173 426.813 85.8029 426.425 91.9286 422.886L115.705 409.163C119.162 407.117 120.88 404.602 120.818 402.188H120.777Z" fill="#D6D8E5"/>
<path d="M120.756 343.937V336.778H113.065L70.3595 312.132C65.0519 309.064 55.7765 309.453 49.6406 312.991L25.8641 326.715C25.4415 326.96 25.0319 327.226 24.6369 327.513L20.8122 325.55C20.8122 325.55 20.8122 333.086 20.8122 333.342C20.761 335.387 21.9166 337.259 24.3812 338.68L71.2185 365.719C76.526 368.787 85.8117 368.409 91.9373 364.86L115.714 351.136C119.273 349.091 120.981 346.422 120.756 343.978V343.937Z" fill="#EDF0F9"/>
<path d="M71.2072 357.93L24.37 330.891C19.0624 327.823 19.7271 322.475 25.863 318.926L49.6396 305.202C55.7755 301.664 65.0509 301.275 70.3584 304.343L117.196 331.382C122.503 334.45 121.839 339.809 115.703 343.347L91.9261 357.092C85.8004 360.64 76.5148 360.998 71.2072 357.93Z" fill="#E2E5F2"/>
<path d="M95.2706 333.383C95.2764 333.799 95.1692 334.209 94.9603 334.569C94.7514 334.93 94.4486 335.226 94.0843 335.428L72.5065 347.884C72.1563 348.085 71.7597 348.191 71.356 348.191C70.9523 348.191 70.5556 348.085 70.2055 347.884L40.0169 330.386C39.6653 330.186 39.3731 329.896 39.1701 329.545C38.9671 329.195 38.8605 328.797 38.8613 328.392V328.27L95.2706 333.383Z" fill="#E5E5E5"/>
<path d="M94.0826 335.428L72.5047 347.884C72.1565 348.085 71.7615 348.191 71.3594 348.191V333.383H95.2689C95.2747 333.799 95.1675 334.209 94.9586 334.569C94.7496 334.93 94.4469 335.226 94.0826 335.428Z" fill="#E5E5E5"/>
<path d="M72.2103 346.679C71.9607 346.826 71.6765 346.903 71.387 346.903C71.0976 346.903 70.8134 346.826 70.5638 346.679L39.1685 328.568C39.0794 328.54 39.0016 328.484 38.9463 328.408C38.8911 328.333 38.8613 328.242 38.8613 328.149C38.8613 328.055 38.8911 327.964 38.9463 327.889C39.0016 327.813 39.0794 327.757 39.1685 327.729L62.311 314.363L95.271 333.385L72.2103 346.679Z" fill="#F4F4F4"/>
<path d="M52.0762 333.396L52.2398 333.488L62.3129 339.307L67.8352 336.116L67.9886 336.024L57.7621 330.113L52.0762 333.396Z" fill="#BFBFBF"/>
<path d="M52.2383 333.491L62.3114 339.31L67.8337 336.12L57.7606 330.301L52.2383 333.491Z" fill="#E5E5E5"/>
<path d="M86.5279 334.538L87.9494 335.428C88.0203 335.466 88.0993 335.485 88.1795 335.485C88.2597 335.485 88.3387 335.466 88.4096 335.428L89.7902 334.631C89.9334 334.549 89.9436 334.436 89.7902 334.365L88.338 333.526C88.2672 333.488 88.1882 333.469 88.1079 333.469C88.0277 333.469 87.9487 333.488 87.8778 333.526L86.4973 334.324C86.4257 334.406 86.4155 334.467 86.5279 334.538Z" fill="#2B303F"/>
<path d="M84.472 333.383L85.9242 334.221C85.9968 334.259 86.0775 334.278 86.1594 334.278C86.2412 334.278 86.3219 334.259 86.3946 334.221L87.7752 333.423C87.9183 333.342 87.9285 333.219 87.7752 333.158L86.323 332.319C86.2521 332.281 86.1731 332.262 86.0929 332.262C86.0127 332.262 85.9337 332.281 85.8628 332.319L84.4822 333.117C84.3697 333.168 84.3595 333.28 84.472 333.383Z" fill="#2B303F"/>
<path d="M82.4173 332.172L83.8695 333.01C83.9422 333.048 84.0228 333.067 84.1047 333.067C84.1865 333.067 84.2672 333.048 84.3399 333.01L85.7205 332.213C85.8534 332.131 85.8739 332.008 85.7205 331.947L84.2683 331.108C84.1974 331.07 84.1184 331.051 84.0382 331.051C83.958 331.051 83.879 331.07 83.8081 331.108L82.4275 331.906C82.3151 331.988 82.3048 332.1 82.4173 332.172Z" fill="#2B303F"/>
<path d="M80.3607 330.98L81.8128 331.819C81.8855 331.856 81.9662 331.876 82.0481 331.876C82.1299 331.876 82.2106 331.856 82.2833 331.819L83.6638 331.021C83.7968 330.939 83.8172 330.817 83.6638 330.755L82.2117 329.917C82.1408 329.879 82.0618 329.859 81.9816 329.859C81.9014 329.859 81.8224 329.879 81.7515 329.917L80.3709 330.714C80.2584 330.786 80.2482 330.909 80.3607 330.98Z" fill="#2B303F"/>
<path d="M78.3071 329.797L79.7593 330.635C79.8309 330.67 79.9096 330.689 79.9894 330.689C80.0692 330.689 80.1479 330.67 80.2195 330.635L81.6103 329.838C81.7432 329.756 81.7637 329.633 81.6103 329.572L80.1581 328.733C80.0865 328.698 80.0078 328.68 79.928 328.68C79.8483 328.68 79.7695 328.698 79.6979 328.733L78.3071 329.541C78.2049 329.602 78.1947 329.725 78.3071 329.797Z" fill="#2B303F"/>
<path d="M76.2485 328.611L77.7007 329.45C77.7723 329.485 77.851 329.503 77.9308 329.503C78.0106 329.503 78.0893 329.485 78.1609 329.45L79.5517 328.652C79.6847 328.57 79.7051 328.448 79.5517 328.376L78.0995 327.537C78.0272 327.505 77.9488 327.488 77.8694 327.488C77.7901 327.488 77.7117 327.505 77.6394 327.537L76.2485 328.345C76.1463 328.417 76.1361 328.54 76.2485 328.611Z" fill="#2B303F"/>
<path d="M74.1948 327.421L75.6776 328.27C75.75 328.303 75.8284 328.319 75.9077 328.319C75.987 328.319 76.0654 328.303 76.1378 328.27L77.5286 327.462C77.6616 327.391 77.682 327.268 77.5286 327.196L76.0764 326.358C76.0041 326.325 75.9257 326.309 75.8464 326.309C75.767 326.309 75.6886 326.325 75.6163 326.358L74.2254 327.155C74.0925 327.248 74.0721 327.35 74.1948 327.421Z" fill="#2B303F"/>
<path d="M72.1373 326.229L73.5894 327.067C73.6618 327.1 73.7402 327.117 73.8195 327.117C73.8988 327.117 73.9773 327.1 74.0496 327.067L75.4404 326.26C75.5734 326.188 75.5938 326.065 75.4404 325.994L73.9883 325.155C73.9167 325.12 73.838 325.102 73.7582 325.102C73.6784 325.102 73.5997 325.12 73.5281 325.155L72.1373 325.953C72.035 326.045 72.0146 326.168 72.1373 326.229Z" fill="#2B303F"/>
<path d="M70.0826 325.041L71.5347 325.88C71.6063 325.915 71.6851 325.933 71.7649 325.933C71.8446 325.933 71.9233 325.915 71.9949 325.88L73.3857 325.072C73.5187 325 73.5391 324.878 73.3857 324.806L71.9336 323.968C71.862 323.932 71.7833 323.914 71.7035 323.914C71.6237 323.914 71.545 323.932 71.4734 323.968L70.0826 324.765C69.9803 324.857 69.9599 324.98 70.0826 325.041Z" fill="#2B303F"/>
<path d="M68.0279 323.851L69.4801 324.69C69.5509 324.727 69.6299 324.747 69.7102 324.747C69.7904 324.747 69.8694 324.727 69.9403 324.69L71.3311 323.892C71.464 323.81 71.4742 323.698 71.3311 323.626L69.8789 322.788C69.808 322.75 69.729 322.73 69.6488 322.73C69.5686 322.73 69.4896 322.75 69.4187 322.788L68.0279 323.585C67.9256 323.667 67.9052 323.79 68.0279 323.851Z" fill="#2B303F"/>
<path d="M65.9713 322.672L67.4234 323.51C67.4943 323.548 67.5733 323.567 67.6535 323.567C67.7337 323.567 67.8127 323.548 67.8836 323.51L69.2744 322.712C69.4073 322.631 69.4176 322.518 69.2744 322.447L67.8222 321.608C67.7514 321.57 67.6724 321.551 67.5922 321.551C67.5119 321.551 67.4329 321.57 67.3621 321.608L65.9713 322.406C65.869 322.488 65.8485 322.61 65.9713 322.672Z" fill="#2B303F"/>
<path d="M63.9177 321.48L65.3699 322.319C65.4407 322.356 65.5197 322.376 65.6 322.376C65.6802 322.376 65.7592 322.356 65.8301 322.319L67.2106 321.521C67.3538 321.439 67.364 321.327 67.2106 321.255L65.7585 320.417C65.6858 320.379 65.6051 320.359 65.5233 320.359C65.4414 320.359 65.3608 320.379 65.2881 320.417L63.9075 321.214C63.8155 321.296 63.795 321.409 63.9177 321.48Z" fill="#2B303F"/>
<path d="M61.863 320.293L63.3152 321.131C63.3861 321.169 63.4651 321.189 63.5453 321.189C63.6255 321.189 63.7045 321.169 63.7754 321.131L65.156 320.334C65.2991 320.252 65.3094 320.139 65.156 320.068L63.7038 319.229C63.6311 319.192 63.5505 319.172 63.4686 319.172C63.3867 319.172 63.3061 319.192 63.2334 319.229L61.8528 320.027C61.7608 320.088 61.7403 320.221 61.863 320.293Z" fill="#2B303F"/>
<path d="M58.8142 318.535L61.2583 319.946C61.3292 319.984 61.4082 320.003 61.4884 320.003C61.5687 320.003 61.6477 319.984 61.7185 319.946L63.0991 319.148C63.2423 319.067 63.2525 318.944 63.0991 318.883L60.655 317.471C60.5841 317.434 60.5051 317.414 60.4249 317.414C60.3447 317.414 60.2657 317.434 60.1948 317.471L58.804 318.269C58.7119 318.351 58.6915 318.463 58.8142 318.535Z" fill="#2B303F"/>
<path d="M81.4876 333.928L82.9398 334.767C83.0132 334.802 83.0936 334.82 83.175 334.82C83.2564 334.82 83.3368 334.802 83.4102 334.767L84.7908 333.959C84.9237 333.887 84.9442 333.764 84.7908 333.693L83.3386 332.854C83.267 332.819 83.1883 332.801 83.1085 332.801C83.0287 332.801 82.95 332.819 82.8784 332.854L81.4979 333.652C81.3854 333.744 81.3751 333.867 81.4876 333.928Z" fill="#2B303F"/>
<path d="M79.4283 332.742L80.8804 333.58C80.9513 333.618 81.0303 333.638 81.1106 333.638C81.1908 333.638 81.2698 333.618 81.3406 333.58L82.7314 332.783C82.8644 332.701 82.8848 332.589 82.7314 332.517L81.2793 331.678C81.2084 331.641 81.1294 331.621 81.0492 331.621C80.969 331.621 80.89 331.641 80.8191 331.678L79.4283 332.476C79.326 332.558 79.3056 332.67 79.4283 332.742Z" fill="#2B303F"/>
<path d="M77.3638 331.551L78.8262 332.389C78.897 332.427 78.976 332.446 79.0563 332.446C79.1365 332.446 79.2155 332.427 79.2863 332.389L80.6669 331.591C80.8101 331.51 80.8203 331.387 80.6669 331.326L79.2045 330.487C79.1337 330.449 79.0547 330.43 78.9744 330.43C78.8942 330.43 78.8152 330.449 78.7443 330.487L77.3638 331.285C77.2615 331.336 77.2513 331.479 77.3638 331.551Z" fill="#2B303F"/>
<path d="M75.31 330.369L76.7622 331.208C76.8345 331.24 76.913 331.257 76.9923 331.257C77.0716 331.257 77.15 331.24 77.2224 331.208L78.6132 330.4C78.7461 330.329 78.7666 330.206 78.6132 330.134L77.1917 329.296C77.1201 329.26 77.0414 329.242 76.9616 329.242C76.8818 329.242 76.8031 329.26 76.7315 329.296L75.3407 330.093C75.2077 330.175 75.1873 330.318 75.31 330.369Z" fill="#2B303F"/>
<path d="M73.263 329.179L74.7152 330.018C74.7879 330.056 74.8685 330.075 74.9504 330.075C75.0323 330.075 75.1129 330.056 75.1856 330.018L76.5662 329.22C76.6991 329.138 76.7196 329.026 76.5662 328.954L75.114 328.116C75.0431 328.078 74.9641 328.059 74.8839 328.059C74.8037 328.059 74.7247 328.078 74.6538 328.116L73.2733 328.914C73.1608 328.995 73.1505 329.118 73.263 329.179Z" fill="#2B303F"/>
<path d="M71.2076 327.992L72.6598 328.83C72.7306 328.868 72.8096 328.888 72.8899 328.888C72.9701 328.888 73.0491 328.868 73.1199 328.83L74.5107 328.033C74.6437 327.951 74.6539 327.828 74.5107 327.767L73.0586 326.928C72.9877 326.891 72.9087 326.871 72.8285 326.871C72.7483 326.871 72.6693 326.891 72.5984 326.928L71.2076 327.726C71.1053 327.808 71.0849 327.92 71.2076 327.992Z" fill="#2B303F"/>
<path d="M69.1419 326.814L70.5941 327.653C70.6682 327.686 70.7483 327.703 70.8293 327.703C70.9103 327.703 70.9904 327.686 71.0645 327.653L72.4451 326.855C72.5882 326.773 72.5985 326.651 72.4451 326.579L70.9929 325.741C70.9205 325.708 70.8421 325.691 70.7628 325.691C70.6835 325.691 70.6051 325.708 70.5327 325.741L69.1522 326.549C69.0397 326.62 69.0294 326.743 69.1419 326.814Z" fill="#2B303F"/>
<path d="M67.0884 325.613L68.5406 326.452C68.6115 326.489 68.6905 326.509 68.7707 326.509C68.8509 326.509 68.9299 326.489 69.0008 326.452L70.3916 325.654C70.5246 325.582 70.545 325.46 70.3916 325.388L68.9394 324.549C68.8686 324.512 68.7896 324.492 68.7093 324.492C68.6291 324.492 68.5501 324.512 68.4793 324.549L67.0884 325.347C66.9862 325.429 66.9657 325.552 67.0884 325.613Z" fill="#2B303F"/>
<path d="M65.0328 324.429L66.485 325.268C66.5559 325.306 66.6349 325.325 66.7151 325.325C66.7953 325.325 66.8743 325.306 66.9452 325.268L68.3258 324.47C68.4689 324.389 68.4792 324.276 68.3258 324.204L66.8736 323.366C66.8009 323.328 66.7203 323.309 66.6384 323.309C66.5565 323.309 66.4759 323.328 66.4032 323.366L65.0226 324.164C64.9204 324.245 64.9101 324.358 65.0328 324.429Z" fill="#2B303F"/>
<path d="M62.966 323.24L64.4182 324.079C64.4898 324.114 64.5685 324.132 64.6483 324.132C64.728 324.132 64.8068 324.114 64.8784 324.079L66.2692 323.281C66.4021 323.199 66.4226 323.076 66.2692 323.015L64.8477 322.136C64.7761 322.1 64.6974 322.082 64.6176 322.082C64.5378 322.082 64.4591 322.1 64.3875 322.136L62.9967 322.943C62.8637 323.046 62.8535 323.158 62.966 323.24Z" fill="#2B303F"/>
<path d="M60.9088 322.049L62.3609 322.888C62.4325 322.923 62.5112 322.941 62.591 322.941C62.6708 322.941 62.7495 322.923 62.8211 322.888L64.2119 322.08C64.3449 322.008 64.3551 321.886 64.2119 321.814L62.7598 320.975C62.6882 320.94 62.6094 320.922 62.5297 320.922C62.4499 320.922 62.3712 320.94 62.2996 320.975L60.9088 321.773C60.8065 321.865 60.786 321.988 60.9088 322.049Z" fill="#2B303F"/>
<path d="M58.8431 320.855L60.2953 321.694C60.3679 321.731 60.4486 321.751 60.5305 321.751C60.6123 321.751 60.693 321.731 60.7657 321.694L62.1463 320.896C62.2894 320.814 62.2997 320.702 62.1463 320.63L60.6941 319.792C60.6232 319.754 60.5442 319.734 60.464 319.734C60.3838 319.734 60.3048 319.754 60.2339 319.792L58.8533 320.589C58.7408 320.671 58.7306 320.794 58.8431 320.855Z" fill="#2B303F"/>
<path d="M83.5525 335.123L85.9966 336.534C86.069 336.567 86.1474 336.584 86.2267 336.584C86.306 336.584 86.3844 336.567 86.4568 336.534L87.8374 335.737C87.9805 335.655 87.9908 335.532 87.8374 335.46L85.3933 334.049C85.3209 334.017 85.2425 334 85.1632 334C85.0838 334 85.0054 334.017 84.9331 334.049L83.5423 334.857C83.4502 334.929 83.4298 335.051 83.5525 335.123Z" fill="#2B303F"/>
<path d="M58.6806 318.596L60.1328 319.435C60.2453 319.496 60.2453 319.609 60.1328 319.68L58.6602 320.529C58.5933 320.561 58.5198 320.578 58.4454 320.578C58.371 320.578 58.2976 320.561 58.2307 320.529L58.1182 320.457C58.056 320.427 57.9878 320.412 57.9188 320.412C57.8497 320.412 57.7816 320.427 57.7193 320.457L56.1751 321.357C56.1089 321.392 56.0352 321.41 55.9604 321.41C55.8855 321.41 55.8118 321.392 55.7456 321.357L54.815 320.826C54.7914 320.814 54.7715 320.795 54.7576 320.773C54.7437 320.75 54.7363 320.724 54.7363 320.698C54.7363 320.671 54.7437 320.645 54.7576 320.623C54.7715 320.6 54.7914 320.582 54.815 320.57L56.2672 319.742L56.5638 319.568L56.7785 319.435L57.0035 319.312L58.2511 318.596C58.3173 318.561 58.391 318.543 58.4659 318.543C58.5407 318.543 58.6144 318.561 58.6806 318.596Z" fill="#2B303F"/>
<path d="M78.5493 339.143L80.0015 339.981C80.0731 340.016 80.1518 340.035 80.2316 340.035C80.3114 340.035 80.3901 340.016 80.4617 339.981L81.8525 339.183C81.9854 339.102 82.0059 338.979 81.8525 338.907L80.4003 338.069C80.328 338.036 80.2495 338.02 80.1702 338.02C80.0909 338.02 80.0125 338.036 79.9401 338.069L78.5493 338.877C78.4471 338.948 78.4368 339.071 78.5493 339.143Z" fill="#2B303F"/>
<path d="M76.5074 337.961L77.9596 338.799C78.0305 338.837 78.1095 338.857 78.1897 338.857C78.2699 338.857 78.3489 338.837 78.4198 338.799L79.8004 338.002C79.9435 337.92 79.9538 337.797 79.8004 337.736L78.3482 336.897C78.2755 336.859 78.1949 336.84 78.113 336.84C78.0311 336.84 77.9505 336.859 77.8778 336.897L76.4972 337.695C76.395 337.777 76.3847 337.889 76.5074 337.961Z" fill="#2B303F"/>
<path d="M74.4497 336.773L75.9019 337.612C75.9727 337.649 76.0517 337.669 76.132 337.669C76.2122 337.669 76.2912 337.649 76.3621 337.612L77.7529 336.814C77.8858 336.732 77.9063 336.62 77.7529 336.548L76.3007 335.71C76.2298 335.672 76.1508 335.652 76.0706 335.652C75.9904 335.652 75.9114 335.672 75.8405 335.71L74.4497 336.507C74.3475 336.589 74.3372 336.712 74.4497 336.773Z" fill="#2B303F"/>
<path d="M56.9939 326.686L58.4461 327.524C58.5177 327.56 58.5964 327.578 58.6762 327.578C58.7559 327.578 58.8346 327.56 58.9062 327.524L60.2868 326.716C60.43 326.645 60.4402 326.522 60.2868 326.451L58.8347 325.612C58.762 325.574 58.6813 325.555 58.5995 325.555C58.5176 325.555 58.4369 325.574 58.3642 325.612L56.9837 326.41C56.8916 326.502 56.8712 326.624 56.9939 326.686Z" fill="#2B303F"/>
<path d="M54.94 325.514L56.3921 326.352C56.4637 326.387 56.5424 326.406 56.6222 326.406C56.702 326.406 56.7807 326.387 56.8523 326.352L58.2431 325.555C58.376 325.473 58.3965 325.35 58.2431 325.278L56.7909 324.44C56.7186 324.407 56.6402 324.391 56.5608 324.391C56.4815 324.391 56.4031 324.407 56.3308 324.44L54.94 325.248C54.8377 325.319 54.8275 325.442 54.94 325.514Z" fill="#2B303F"/>
<path d="M52.8904 324.324L54.3425 325.163C54.4134 325.2 54.4924 325.22 54.5726 325.22C54.6529 325.22 54.7319 325.2 54.8027 325.163L56.1833 324.365C56.3265 324.283 56.3367 324.16 56.1833 324.099L54.7311 323.26C54.6585 323.223 54.5778 323.203 54.4959 323.203C54.4141 323.203 54.3334 323.223 54.2607 323.26L52.8802 324.058C52.7881 324.181 52.7677 324.252 52.8904 324.324Z" fill="#2B303F"/>
<path d="M50.8364 323.156L52.2886 323.995C52.3595 324.032 52.4385 324.052 52.5187 324.052C52.5989 324.052 52.6779 324.032 52.7488 323.995L54.1396 323.197C54.2725 323.115 54.293 323.003 54.1396 322.931L52.6874 322.092C52.6166 322.055 52.5376 322.035 52.4573 322.035C52.3771 322.035 52.2981 322.055 52.2272 322.092L50.8364 322.89C50.7342 322.951 50.7239 323.064 50.8364 323.156Z" fill="#2B303F"/>
<path d="M71.8728 335.286L73.8567 336.452C73.9283 336.487 74.0071 336.505 74.0868 336.505C74.1666 336.505 74.2453 336.487 74.3169 336.452L75.6975 335.644C75.8407 335.572 75.8509 335.45 75.6975 335.378L73.7136 334.233C73.6412 334.2 73.5628 334.184 73.4835 334.184C73.4042 334.184 73.3257 334.2 73.2534 334.233L71.8626 335.041C71.7705 335.092 71.7501 335.215 71.8728 335.286Z" fill="#2B303F"/>
<path d="M59.0396 327.875L61.0235 329.02C61.0944 329.058 61.1734 329.077 61.2536 329.077C61.3338 329.077 61.4128 329.058 61.4837 329.02L62.8745 328.222C63.0074 328.141 63.0177 328.018 62.8745 327.957L60.8906 326.811C60.8197 326.774 60.7407 326.754 60.6605 326.754C60.5802 326.754 60.5012 326.774 60.4304 326.811L59.0396 327.609C58.9373 327.691 58.9271 327.803 59.0396 327.875Z" fill="#2B303F"/>
<path d="M61.6174 329.366L71.2814 334.94C71.3523 334.977 71.4313 334.997 71.5115 334.997C71.5917 334.997 71.6707 334.977 71.7416 334.94L73.1222 334.142C73.2654 334.06 73.2756 333.938 73.1222 333.876L63.4991 328.272C63.4275 328.237 63.3488 328.219 63.269 328.219C63.1892 328.219 63.1105 328.237 63.0389 328.272L61.6583 329.08C61.5151 329.172 61.5049 329.295 61.6174 329.366Z" fill="#2B303F"/>
<path d="M78.94 334.755L80.3922 335.593C80.463 335.631 80.542 335.65 80.6223 335.65C80.7025 335.65 80.7815 335.631 80.8523 335.593L82.2431 334.795C82.3761 334.724 82.3863 334.601 82.2431 334.53L80.791 333.671C80.7201 333.633 80.6411 333.613 80.5609 333.613C80.4807 333.613 80.4017 333.633 80.3308 333.671L78.94 334.468C78.8377 334.57 78.8173 334.693 78.94 334.755Z" fill="#2B303F"/>
<path d="M76.8842 333.567L78.3364 334.406C78.408 334.441 78.4867 334.459 78.5665 334.459C78.6463 334.459 78.725 334.441 78.7966 334.406L80.1874 333.598C80.3204 333.526 80.3408 333.403 80.1874 333.332L78.7455 332.483C78.6746 332.445 78.5956 332.426 78.5154 332.426C78.4351 332.426 78.3561 332.445 78.2853 332.483L76.8945 333.281C76.782 333.383 76.7615 333.506 76.8842 333.567Z" fill="#2B303F"/>
<path d="M74.8285 332.361L76.2807 333.2C76.3523 333.235 76.431 333.253 76.5108 333.253C76.5906 333.253 76.6693 333.235 76.7409 333.2L78.1317 332.361C78.2646 332.29 78.2851 332.167 78.1317 332.095L76.7 331.339C76.6284 331.303 76.5497 331.285 76.4699 331.285C76.3901 331.285 76.3114 331.303 76.2398 331.339L74.849 332.136C74.7263 332.198 74.7058 332.361 74.8285 332.361Z" fill="#2B303F"/>
<path d="M72.7727 331.196L74.2248 332.035C74.2964 332.07 74.3751 332.088 74.4549 332.088C74.5347 332.088 74.6134 332.07 74.685 332.035L76.0758 331.227C76.2087 331.155 76.2292 331.033 76.0758 330.961L74.6543 330.112C74.5827 330.077 74.504 330.059 74.4242 330.059C74.3444 330.059 74.2657 330.077 74.1941 330.112L72.8033 330.91C72.6704 331.012 72.6602 331.135 72.7727 331.196Z" fill="#2B303F"/>
<path d="M70.7196 330.023L72.1717 330.861C72.2458 330.894 72.326 330.911 72.4069 330.911C72.4879 330.911 72.568 330.894 72.6422 330.861L74.0227 330.053C74.1659 329.982 74.1761 329.859 74.0227 329.788L72.6115 328.929C72.5399 328.893 72.4612 328.875 72.3814 328.875C72.3016 328.875 72.2229 328.893 72.1513 328.929L70.7707 329.726C70.6173 329.828 70.5662 329.951 70.7196 330.023Z" fill="#2B303F"/>
<path d="M68.6729 328.831L70.125 329.67C70.1974 329.702 70.2758 329.719 70.3551 329.719C70.4345 329.719 70.5129 329.702 70.5852 329.67L71.9658 328.862C72.109 328.79 72.1192 328.668 71.9658 328.596L70.5648 327.737C70.4907 327.704 70.4106 327.688 70.3296 327.688C70.2486 327.688 70.1685 327.704 70.0944 327.737L68.7138 328.535C68.5195 328.637 68.5195 328.76 68.6729 328.831Z" fill="#2B303F"/>
<path d="M66.6173 327.652L68.0695 328.49C68.1419 328.523 68.2203 328.539 68.2996 328.539C68.3789 328.539 68.4573 328.523 68.5297 328.49L69.9103 327.693C70.0534 327.611 70.0637 327.488 69.9103 327.416L68.5195 326.557C68.4454 326.525 68.3652 326.508 68.2843 326.508C68.2033 326.508 68.1232 326.525 68.049 326.557L66.6685 327.365C66.4742 327.457 66.4742 327.58 66.6173 327.652Z" fill="#2B303F"/>
<path d="M64.5599 326.46L66.0121 327.298C66.0837 327.334 66.1624 327.352 66.2422 327.352C66.322 327.352 66.4007 327.334 66.4723 327.298L67.8631 326.501C67.996 326.419 68.0063 326.296 67.8631 326.225L66.4723 325.366C66.3999 325.333 66.3215 325.316 66.2422 325.316C66.1629 325.316 66.0845 325.333 66.0121 325.366L64.6213 326.174C64.427 326.225 64.427 326.388 64.5599 326.46Z" fill="#2B303F"/>
<path d="M62.5045 325.28L63.9567 326.119C64.0283 326.154 64.107 326.172 64.1868 326.172C64.2666 326.172 64.3453 326.154 64.4169 326.119L65.8077 325.321C65.9406 325.239 65.9611 325.117 65.8077 325.045L64.4271 324.186C64.3548 324.153 64.2763 324.137 64.197 324.137C64.1177 324.137 64.0393 324.153 63.9669 324.186L62.5761 324.994C62.3818 325.086 62.3818 325.209 62.5045 325.28Z" fill="#2B303F"/>
<path d="M60.4473 324.087L61.8995 324.925C61.9711 324.961 62.0498 324.979 62.1296 324.979C62.2093 324.979 62.2881 324.961 62.3597 324.925L63.7505 324.128C63.8834 324.046 63.9039 323.923 63.7505 323.862L62.3801 323.003C62.3085 322.968 62.2298 322.949 62.15 322.949C62.0702 322.949 61.9915 322.968 61.9199 323.003L60.5291 323.811C60.3348 323.892 60.3348 324.015 60.4473 324.087Z" fill="#2B303F"/>
<path d="M58.3958 322.902L59.8479 323.741C59.9213 323.776 60.0017 323.794 60.0831 323.794C60.1646 323.794 60.245 323.776 60.3184 323.741L61.6989 322.943C61.8319 322.861 61.8523 322.739 61.6989 322.677L60.2468 321.839C60.1752 321.803 60.0965 321.785 60.0167 321.785C59.9369 321.785 59.8582 321.803 59.7866 321.839L58.406 322.647C58.2935 322.708 58.2935 322.831 58.3958 322.902Z" fill="#2B303F"/>
<path d="M56.3393 321.715L57.7914 322.553C57.8641 322.591 57.9448 322.611 58.0267 322.611C58.1085 322.611 58.1892 322.591 58.2619 322.553L59.6424 321.756C59.7856 321.674 59.7958 321.551 59.6424 321.49L58.1903 320.651C58.1187 320.616 58.04 320.598 57.9602 320.598C57.8804 320.598 57.8017 320.616 57.7301 320.651L56.3495 321.459C56.2472 321.52 56.2472 321.643 56.3393 321.715Z" fill="#2B303F"/>
<path d="M80.9957 335.938L83.9921 337.677C84.0648 337.714 84.1454 337.734 84.2273 337.734C84.3092 337.734 84.3898 337.714 84.4625 337.677L85.8431 336.879C85.976 336.797 85.9965 336.674 85.8431 336.613L82.8365 334.854C82.7638 334.817 82.6831 334.797 82.6013 334.797C82.5194 334.797 82.4388 334.817 82.3661 334.854L80.9855 335.652C80.8832 335.754 80.873 335.877 80.9957 335.938Z" fill="#2B303F"/>
<path d="M77.9678 336.451L79.4199 337.29C79.4915 337.325 79.5703 337.343 79.65 337.343C79.7298 337.343 79.8085 337.325 79.8801 337.29L81.2607 336.482C81.4039 336.41 81.4141 336.288 81.2607 336.216L79.8495 335.429C79.7761 335.393 79.6957 335.375 79.6142 335.375C79.5328 335.375 79.4524 335.393 79.379 335.429L77.9985 336.226C77.8553 336.308 77.8451 336.451 77.9678 336.451Z" fill="#2B303F"/>
<path d="M75.9127 335.323L77.3648 336.161C77.4372 336.194 77.5156 336.21 77.5949 336.21C77.6742 336.21 77.7526 336.194 77.825 336.161L79.2158 335.353C79.3488 335.282 79.359 335.159 79.2158 335.087L77.7637 334.249C77.6921 334.214 77.6133 334.195 77.5336 334.195C77.4538 334.195 77.3751 334.214 77.3035 334.249L75.9127 335.046C75.8104 335.128 75.7899 335.251 75.9127 335.323Z" fill="#2B303F"/>
<path d="M73.858 334.135L75.3101 334.974C75.3825 335.006 75.4609 335.023 75.5402 335.023C75.6195 335.023 75.6979 335.006 75.7703 334.974L77.1611 334.166C77.2941 334.094 77.3145 333.971 77.1611 333.9L75.709 333.061C75.6374 333.026 75.5587 333.008 75.4789 333.008C75.3991 333.008 75.3204 333.026 75.2488 333.061L73.858 333.859C73.7557 333.941 73.7353 334.064 73.858 334.135Z" fill="#2B303F"/>
<path d="M71.7993 332.947L73.2515 333.786C73.3239 333.818 73.4023 333.835 73.4816 333.835C73.5609 333.835 73.6393 333.818 73.7117 333.786L75.1025 332.988C75.2354 332.906 75.2559 332.784 75.1025 332.712L73.6503 331.873C73.5779 331.841 73.4995 331.824 73.4202 331.824C73.3409 331.824 73.2625 331.841 73.1901 331.873L71.7993 332.681C71.6971 332.753 71.6868 332.876 71.7993 332.947Z" fill="#2B303F"/>
<path d="M69.7446 331.761L71.1968 332.599C71.2702 332.635 71.3506 332.653 71.432 332.653C71.5134 332.653 71.5938 332.635 71.6672 332.599L73.0478 331.802C73.1807 331.72 73.2012 331.597 73.0478 331.525L71.5854 330.666C71.513 330.634 71.4346 330.617 71.3553 330.617C71.276 330.617 71.1976 330.634 71.1252 330.666L69.7446 331.474C69.6424 331.566 69.6322 331.689 69.7446 331.761Z" fill="#2B303F"/>
<path d="M67.6927 330.575L69.1551 331.414C69.2267 331.449 69.3054 331.467 69.3852 331.467C69.465 331.467 69.5437 331.449 69.6153 331.414L70.9959 330.616C71.139 330.534 71.1493 330.411 70.9959 330.35L69.5437 329.491C69.4721 329.456 69.3934 329.438 69.3136 329.438C69.2338 329.438 69.1551 329.456 69.0835 329.491L67.7029 330.299C67.5904 330.381 67.5802 330.503 67.6927 330.575Z" fill="#2B303F"/>
<path d="M65.647 329.387L67.0992 330.226C67.1701 330.263 67.2491 330.283 67.3293 330.283C67.4095 330.283 67.4885 330.263 67.5594 330.226L68.94 329.428C69.0831 329.346 69.0934 329.224 68.94 329.162L67.498 328.272C67.4247 328.237 67.3443 328.219 67.2628 328.219C67.1814 328.219 67.101 328.237 67.0276 328.272L65.647 329.08C65.5448 329.193 65.5243 329.295 65.647 329.387Z" fill="#2B303F"/>
<path d="M63.5913 328.2L65.0434 329.038C65.1143 329.076 65.1933 329.096 65.2735 329.096C65.3537 329.096 65.4328 329.076 65.5036 329.038L66.8944 328.241C67.0274 328.159 67.0376 328.036 66.8944 327.975L65.4525 327.116C65.3816 327.078 65.3026 327.059 65.2224 327.059C65.1422 327.059 65.0632 327.078 64.9923 327.116L63.6015 327.914C63.489 328.016 63.4686 328.128 63.5913 328.2Z" fill="#2B303F"/>
<path d="M61.5336 327.012L62.9858 327.851C63.0567 327.889 63.1357 327.908 63.2159 327.908C63.2961 327.908 63.3751 327.889 63.446 327.851L64.8368 327.053C64.9697 326.971 64.9902 326.849 64.8368 326.787L63.4051 325.928C63.3342 325.891 63.2552 325.871 63.175 325.871C63.0948 325.871 63.0157 325.891 62.9449 325.928L61.5541 326.726C61.4314 326.828 61.4109 326.941 61.5336 327.012Z" fill="#2B303F"/>
<path d="M59.4787 325.829L60.9309 326.667C61.0018 326.705 61.0808 326.725 61.161 326.725C61.2412 326.725 61.3202 326.705 61.3911 326.667L62.7819 325.87C62.9148 325.788 62.9353 325.665 62.7819 325.604L61.3604 324.745C61.2895 324.707 61.2105 324.687 61.1303 324.688C61.0501 324.687 60.9711 324.707 60.9002 324.745L59.5196 325.542C59.3765 325.645 59.3662 325.757 59.4787 325.829Z" fill="#2B303F"/>
<path d="M57.4247 324.641L58.8768 325.48C58.9495 325.517 59.0302 325.537 59.112 325.537C59.1939 325.537 59.2745 325.517 59.3472 325.48L60.7278 324.682C60.871 324.6 60.8812 324.488 60.7278 324.416L59.3165 323.557C59.2457 323.52 59.1667 323.5 59.0865 323.5C59.0062 323.5 58.9272 323.52 58.8564 323.557L57.4758 324.355C57.3224 324.457 57.2713 324.57 57.4247 324.641Z" fill="#2B303F"/>
<path d="M52.8318 321.986L56.8303 324.287C56.9012 324.325 56.9802 324.345 57.0604 324.345C57.1407 324.345 57.2197 324.325 57.2905 324.287L58.6711 323.49C58.8143 323.408 58.8245 323.295 58.6711 323.224L54.6726 320.912C54.6002 320.88 54.5218 320.863 54.4425 320.863C54.3631 320.863 54.2847 320.88 54.2124 320.912L52.8216 321.72C52.7295 321.792 52.7091 321.915 52.8318 321.986Z" fill="#2B303F"/>
<path d="M80.013 337.679L81.997 338.825C82.0678 338.862 82.1468 338.882 82.227 338.882C82.3073 338.882 82.3863 338.862 82.4571 338.825L83.8479 338.027C83.9809 337.945 84.0013 337.833 83.8479 337.761L81.864 336.616C81.7931 336.578 81.7141 336.559 81.6339 336.559C81.5537 336.559 81.4747 336.578 81.4038 336.616L80.0233 337.414C79.9108 337.475 79.9005 337.618 80.013 337.679Z" fill="#2B303F"/>
<path d="M95.2724 333.379L62.3125 314.357V288.433L62.5682 287.86L62.834 287.717C63.182 287.521 63.5748 287.418 63.9743 287.418C64.3738 287.418 64.7666 287.521 65.1146 287.717L95.2724 305.102C95.6187 305.302 95.906 305.59 96.1053 305.937C96.3046 306.283 96.4089 306.676 96.4076 307.076V331.395C96.203 332.683 95.9781 332.98 95.2724 333.379Z" fill="#E5E5E5"/>
<path d="M92.2454 308.273L62.3125 289.302V288.433L62.5682 287.86L62.834 287.717C63.182 287.521 63.5748 287.418 63.9743 287.418C64.3738 287.418 64.7666 287.521 65.1146 287.717L95.2724 305.102C95.6398 305.316 95.9406 305.628 96.1417 306.002L92.2454 308.273Z" fill="#E5E5E5"/>
<path d="M63.0693 287.851L94.7714 306.126C94.94 306.224 95.0799 306.364 95.1769 306.533C95.2739 306.701 95.3245 306.893 95.3237 307.087V333.38L62.3126 314.358V288.291C62.311 288.202 62.3333 288.114 62.3771 288.036C62.4209 287.959 62.4847 287.894 62.5618 287.849C62.639 287.804 62.7267 287.781 62.8159 287.781C62.9051 287.782 62.9926 287.806 63.0693 287.851Z" fill="#DCEEFF"/>
<path d="M63.0693 287.851L94.7714 306.126C94.94 306.224 95.0799 306.364 95.1769 306.533C95.2739 306.701 95.3245 306.893 95.3237 307.087V333.38L62.3126 314.358V288.291C62.311 288.202 62.3333 288.114 62.3771 288.036C62.4209 287.959 62.4847 287.894 62.5618 287.849C62.639 287.804 62.7267 287.781 62.8159 287.781C62.9051 287.782 62.9926 287.806 63.0693 287.851Z" fill="#F4F4F4"/>
<path d="M95.2725 333.39V332.449L62.3125 313.418V314.359L95.2725 333.39Z" fill="#DBDBDB"/>
<path d="M63.5703 289.445V312.782L94.2088 330.423V307.137L63.5703 289.445Z" fill="#1E212D"/>
<path d="M8.85773 310.516C8.58162 312.97 5.65685 323.524 6.29089 327.134C6.92493 330.744 16.8855 336.798 16.8855 336.798L18.2661 330.662L12.7438 325.201L14.2369 314.974L8.85773 310.516Z" fill="#FFCEA9"/>
<path d="M16.5788 300.122C15.6083 299.673 14.507 299.596 13.4836 299.905C12.4601 300.214 11.5856 300.888 11.0258 301.799C9.55317 304.233 8.02943 312.568 7.89648 313.958C7.89648 313.958 9.94178 316.801 13.0097 316.331L16.5788 300.122Z" fill="#EDEDED"/>
<path d="M27.9597 417.817C30.1305 418.414 32.4493 418.131 34.4126 417.029C35.9671 417.029 44.4141 413.47 45.5595 416.497C46.5821 419.156 42.9108 421.611 40.9576 422.091C36.6931 423.114 33.5434 425.251 31.8253 425.609C30.547 425.875 28.9006 426.049 27.8881 425.047C26.661 423.85 26.7735 419.402 27.9597 417.817Z" fill="#38226D"/>
<path d="M31.8258 424.871C33.5439 424.513 36.6936 422.386 40.9581 421.353C42.5943 420.954 45.4066 419.165 45.6929 417.027C46.0713 419.482 42.7784 421.65 40.9581 422.089C36.6936 423.112 33.5439 425.249 31.8258 425.607C30.5475 425.873 28.9011 426.047 27.8886 425.045C27.6196 424.756 27.4264 424.404 27.3262 424.022C27.9586 424.504 28.6946 424.831 29.4757 424.978C30.2568 425.126 31.0614 425.089 31.8258 424.871Z" fill="#9C73FF"/>
<path d="M14.3177 411.663C16.4887 412.258 18.8066 411.975 20.7707 410.875C22.3251 410.926 30.7619 407.316 31.9073 410.343C32.9299 413.002 29.2586 415.457 27.3054 415.937C23.0512 416.96 19.8912 419.097 18.1834 419.455C16.905 419.721 15.2586 419.895 14.2359 418.893C12.9781 417.696 13.0803 413.248 14.3177 411.663Z" fill="#38226D"/>
<path d="M18.1442 418.723C19.852 418.365 23.012 416.238 27.2662 415.205C28.9024 414.806 31.7249 413.016 32.0113 410.879C32.3897 413.333 29.0967 415.501 27.2662 415.992C23.012 417.015 19.852 419.152 18.1442 419.51C16.8659 419.776 15.2194 419.95 14.1968 418.948C13.9311 418.658 13.7414 418.306 13.6445 417.925C14.2813 418.398 15.0193 418.716 15.8003 418.854C16.5812 418.993 17.3837 418.948 18.1442 418.723Z" fill="#9C73FF"/>
<path d="M14.1151 388.739C14.4748 385.617 15.1253 382.536 16.0581 379.535C16.0581 379.535 15.4752 371.558 15.1889 363.991C14.8514 355.411 11.8755 347.863 14.2276 341.012L40.7039 346.902C40.7039 346.902 39.1086 381.11 38.7507 385.251C38.5539 388.477 38.1577 391.688 37.5644 394.864C36.3577 401.501 34.3942 417.301 34.3942 417.301C31.5921 418.927 27.9106 418.027 27.9106 418.027C27.9106 418.027 28.1151 398.045 28.2992 393.259C28.514 387.419 28.698 387.869 28.698 387.869L27.8186 373.266L27.2459 366.026C27.2459 366.026 26.5096 371.343 26.0392 376.089C25.6199 380.23 24.6177 383.973 23.503 391.674C22.5417 398.362 20.9668 411.789 20.9668 411.789C18.1648 413.415 14.3605 412.065 14.3605 412.065C14.3605 412.065 13.3583 394.537 14.1151 388.739Z" fill="url(#paint4_linear_1130:1216)"/>
<path d="M17.9789 300.261C20.0242 300.364 21.4968 300.885 21.7422 300.261C21.9636 299.223 22.1173 298.17 22.2024 297.112C21.9774 296.529 21.7729 295.905 21.7729 295.905C19.2367 294.34 18.4391 291.61 18.1118 288.419C17.5391 282.968 20.4844 278.193 25.9351 277.63C31.0483 277.098 34.8219 280.698 35.8241 285.638C36.3661 288.082 37.4399 292.694 35.9877 296.703C35.1696 298.952 34.1265 300.732 33.0732 301.08C32.0463 301.049 31.022 300.961 30.0052 300.814C30.0052 300.814 29.7291 302.327 29.545 303.299C29.3609 304.27 29.4325 304.782 31.3653 305.968C33.2981 307.154 28.4406 309.608 25.2294 309.373C22.0183 309.138 18.48 307.215 17.5085 305.16C16.496 302.89 16.5881 300.2 17.9789 300.261Z" fill="#FFCEA9"/>
<path d="M20.8942 300.557C20.3317 301.958 21.7532 303.625 25.5472 304.853C29.3413 306.08 29.6378 304.505 29.6378 304.505C32.1593 305.635 34.6173 306.901 37.0009 308.299C39.2712 309.894 40.2836 314.435 40.5904 322.248C40.9381 331.237 40.9688 344.562 40.6722 346.863C40.6722 346.863 36.4282 351.097 30.9877 350.647C25.5472 350.197 16.4048 345.39 14.1856 341.678C14.247 333.804 15.2083 332.474 13.8993 327.975C10.9745 317.595 9.44055 313.34 10.8313 306.438C11.9972 300.741 13.6334 300.036 15.8832 300.097C17.5606 300.16 19.2334 300.313 20.8942 300.557Z" fill="#F4F4F4"/>
<path d="M49.1611 329.682C44.7024 330.807 43.6593 327.985 43.0252 325.663C41.614 320.018 40.847 314.926 39.7834 311.725C38.546 307.951 37.237 307.348 35.3963 306.612C33.2487 305.753 31.3977 307.573 32.1136 312.379C32.9997 317.942 34.3684 323.417 36.2042 328.742C36.7666 330.501 38.0142 333.62 39.8755 335.133C42.1764 336.994 45.6432 336.913 50.8894 335.604C53.1187 335.051 55.5731 333.712 59.8069 331.738C60.942 331.206 61.8522 330.859 64.0099 329.846C66.1976 328.86 68.1161 327.362 69.6038 325.479C70.739 323.823 70.8924 323.045 70.6265 322.667C70.3606 322.289 69.8186 322.299 69.2152 322.994C68.3299 324.169 67.2426 325.177 66.0041 325.97C66.0041 325.97 67.4051 324.508 68.1721 323.567C68.854 322.725 69.4214 321.797 69.8595 320.806C70.2583 319.845 69.43 318.536 68.8368 319.221C68.2437 319.906 67.896 320.612 66.7915 321.992C66.1915 322.73 65.5048 323.392 64.7463 323.966C65.4648 322.996 66.1043 321.97 66.6586 320.898C67.149 320.059 67.3903 319.098 67.354 318.127C67.354 317.625 66.6075 317.022 65.9325 317.983C65.2866 319.296 64.483 320.526 63.5395 321.644C62.5169 322.667 61.6579 323.311 61.6272 323.015C61.5965 322.718 62.251 322.135 62.6498 320.908C63.0487 319.681 62.6498 318.372 61.9749 318.239C61.2999 318.106 61.4226 318.127 60.8704 319.262C60.1176 320.448 59.4347 321.677 58.8251 322.943C58.4813 324.13 57.8529 325.215 56.9946 326.103C55.8288 327.32 53.4051 328.609 49.1611 329.682Z" fill="#FFCEA9"/>
<path d="M33.7496 305.845C36.7255 305.405 38.8628 306.745 40.1514 311.254C41.4399 315.764 42.3807 319.436 42.3807 319.436C41.204 321.14 39.4173 322.326 37.3902 322.749C33.8314 323.618 32.5429 321.91 32.5429 321.91C32.5429 321.91 31.5202 317.186 30.9373 313.965C30.3544 310.743 30.109 306.387 33.7496 305.845Z" fill="#EDEDED"/>
<path d="M35.6516 284.942C35.6516 284.942 40.3557 277.783 30.1599 276.321C22.8071 275.298 18.0825 280.002 17.5302 285.126C17.0087 290.024 20.0255 295.117 22.2037 297.132C23.2264 297.51 25.558 297.735 28.5646 296.365C28.6864 295.032 28.7342 293.694 28.7078 292.356C28.7078 292.356 25.1183 284.809 35.6516 284.942Z" fill="#3A2C6D"/>
</g>
<defs>
<linearGradient id="paint0_linear_1130:1216" x1="497.909" y1="185.36" x2="368.166" y2="185.36" gradientUnits="userSpaceOnUse">
<stop stop-color="#AF1B1B"/>
<stop offset="1" stop-color="#E22222"/>
</linearGradient>
<linearGradient id="paint1_linear_1130:1216" x1="253.005" y1="190.81" x2="123.262" y2="190.81" gradientUnits="userSpaceOnUse">
<stop stop-color="#AF1B1B"/>
<stop offset="1" stop-color="#E22222"/>
</linearGradient>
<linearGradient id="paint2_linear_1130:1216" x1="371.102" y1="258.231" x2="241.369" y2="258.231" gradientUnits="userSpaceOnUse">
<stop stop-color="#AF1B1B"/>
<stop offset="1" stop-color="#E22222"/>
</linearGradient>
<linearGradient id="paint3_linear_1130:1216" x1="498.042" y1="331.587" x2="368.309" y2="331.587" gradientUnits="userSpaceOnUse">
<stop stop-color="#AF1B1B"/>
<stop offset="1" stop-color="#E22222"/>
</linearGradient>
<linearGradient id="paint4_linear_1130:1216" x1="40.7039" y1="379.718" x2="13.3301" y2="379.718" gradientUnits="userSpaceOnUse">
<stop stop-color="#AF1B1B"/>
<stop offset="1" stop-color="#E22222"/>
</linearGradient>
<clipPath id="clip0_1130:1216">
<rect width="511.324" height="438" fill="white"/>
</clipPath>
</defs>
</svg>
